<svg xmlns="http://www.w3.org/2000/svg" xml:space="preserve" width="298" height="80" style="shape-rendering:geometricPrecision;text-rendering:geometricPrecision;image-rendering:optimizeQuality;fill-rule:evenodd;clip-rule:evenodd" viewBox="0 0 305717 81994"><defs><linearGradient id="id0" gradientUnits="userSpaceOnUse" x1="21225" y1="63076.4" x2="33229.7" y2="47694.8"><stop offset="0" style="stop-opacity:1;stop-color:#e31e24"/><stop offset="1" style="stop-opacity:1;stop-color:#80000d"/></linearGradient><linearGradient id="id1" gradientUnits="userSpaceOnUse" x1="60316" y1="61102.8" x2="50393.2" y2="46671.3"><stop offset="0" style="stop-opacity:1;stop-color:#e31e24"/><stop offset="1" style="stop-opacity:1;stop-color:#80000d"/></linearGradient><linearGradient id="id2" gradientUnits="userSpaceOnUse" x1="7354.49" y1="16271.6" x2="41355.5" y2="30680.3"><stop offset="0" style="stop-opacity:1;stop-color:#e31e24"/><stop offset="1" style="stop-opacity:1;stop-color:#80000d"/></linearGradient><linearGradient id="id3" gradientUnits="userSpaceOnUse" x1="66501.3" y1="14925.6" x2="46271.2" y2="31675.4"><stop offset="0" style="stop-opacity:1;stop-color:#e31e24"/><stop offset="1" style="stop-opacity:1;stop-color:#800303"/></linearGradient><linearGradient id="id4" gradientUnits="userSpaceOnUse" x1="8000" y1="20000" x2="50000" y2="200000"><stop offset="0" style="stop-opacity:1;stop-color:#e31e24"/><stop offset="1" style="stop-opacity:1;stop-color:#800303"/></linearGradient><style>.str0{stroke:#fff;stroke-width:1500}</style></defs><g id="Layer_x0020_1"><g id="_2310609600096"><path class="str0" d="M1546 13345s637-440 1786-1149c-571 376-1136 761-1695 1153l-60 43-8 74c-16 154-31 308-46 462 12-217 20-412 23-583zM33742 1796c14586-147 13532 16108 13680 17420 98 5723 89 11148 89 11148h-78v-9455c0-4067-3328-7395-7396-7395-4067 0-7395 3328-7395 7395v9466l-9938 7S7664 30007 6449 45157c-3160-7680-4902-16083-4902-24889 0-1143 29-2274 86-3392 57-1108 141-2210 252-3303 5515-3868 11649-6927 18227-9001 4365-1376 8925-2318 13630-2776zM5457 43530c-3980-9720-4396-18556-4228-24296-5 345-8 689-8 1034 0 8185 1498 16024 4236 23262z" style="fill:url(#id2)"/><path class="str0" d="M78855 23272c-58 1160-132 2245-209 3215-151 1685-366 3352-642 4997-3902 8320-12447 13607-19821 13639h-119c3540-544 6273-3623 6273-7310 0-4067-3328-7395-7395-7395h-9431v-54l-78-7453v-2002c0-213-9-424-28-633l-27-2604S46917 1844 33862 1784c2127-202 4283-306 6464-306 6994 0 13736 1068 20068 3049 6533 2044 12632 5060 18123 8875 129 1178 227 2365 294 3559 65 1191 99 2397 99 3615 0 903-18 1801-55 2696z" style="fill:url(#id3)"/><path class="str0" d="M6432 45116c183-2837 1813-14724 16272-14734l9938-7v43h-9509c-4067 0-7395 3328-7395 7395 0 4068 3328 7396 7395 7396h9509v9509c0 388 30 769 89 1142-150 2549-231 16416 15292 20410-2389 1506-4880 2866-7463 4066-11679-5272-21551-13789-28443-24386-2217-3409-4124-7033-5685-10834zm33500 35291c-1220-507-4748-2098-9254-5195 2928 1964 6021 3704 9254 5195zm7501-50043h78v54h-78v-54z" style="fill:url(#id0)"/><path class="str0" d="M78000 31504c-2600 5601-9159 13020-19936 13619h2c-367 57-742 86-1124 86h-9509v9509c0 4067-3328 7395-7396 7395-3728 0-6835-2796-7327-6395l-1 1132c-7 7312 3663 16463 15313 19420 8249-5201 15265-12150 20516-20321 4689-7298 7969-15572 9462-24445z" style="fill:url(#id1)"/></g><path d="M116900 21568h-4941v-1514c0-707-65-1160-190-1354s-332-289-625-289c-319 0-560 130-724 393-164 259-246 651-246 1181 0 681 95 1195 280 1540 181 340 682 758 1505 1250 2359 1410 3846 2570 4458 3471 617 901 923 2354 923 4355 0 1457-172 2531-513 3225-341 690-996 1267-1975 1733-974 470-2108 703-3406 703-1423 0-2634-272-3643-811-1005-539-1660-1224-1975-2056-310-837-466-2023-466-3553v-1341h4941v2488c0 767 69 1259 207 1479 138 219 384 327 738 327 353 0 616-138 789-418 172-276 258-690 258-1233 0-1203-163-1992-491-2359-341-370-1169-991-2488-1862-1319-875-2190-1514-2621-1910-427-397-785-945-1065-1643-281-699-423-1591-423-2678 0-1565 198-2712 599-3436s1044-1289 1936-1699c893-409 1966-612 3230-612 1379 0 2552 224 3527 668 970 449 1612 1009 1927 1690 315 677 474 1829 474 3454v811zm7158-2510-91 1483c457-603 957-1052 1505-1349 547-298 1147-444 1794-444 793 0 1479 211 2056 638 574 427 936 918 1078 1474 142 557 216 1501 216 2833v7067c0 1526-91 2609-272 3255-181 643-552 1160-1112 1544-561 384-1238 573-2031 573-630 0-1216-146-1755-444-539-297-1031-737-1479-1323v3837h-5096V19058h5187zm1461 4877c0-1039-38-1664-116-1884-73-220-285-328-634-328-340 0-556 125-655 379-99 250-147 863-147 1833v6950c0 1009 52 1643 151 1893 103 254 323 379 664 379 332 0 535-116 617-349 82-228 120-793 120-1686v-7187zm12030-8576v2664h-5252v-2664h5252zm0 3699v16764h-5252V19058h5252zm7192-2225v2639h1423v2665h-1423v8964c0 1099 60 1716 177 1841 116 125 599 190 1453 190v2690h-2066c-1164 0-1996-47-2496-147-496-94-936-319-1315-668s-617-746-712-1199c-90-448-137-1504-137-3169v-8502h-1087v-2665h1087v-2639h5096zm7080 8719h-4786v-1126c0-1297 151-2298 448-3005 298-703 901-1324 1802-1863 902-539 2070-810 3514-810 1725 0 3027 306 3902 918 876 608 1402 1358 1579 2247 176 888 267 2720 267 5493v8416h-4967v-1496c-311 603-716 1052-1207 1354-492 302-1078 452-1764 452-892 0-1712-250-2458-750-746-504-1116-1599-1116-3294v-1380c0-1254 198-2108 595-2565 396-457 1379-987 2949-1591 1677-660 2574-1100 2695-1328 116-229 176-690 176-1393 0-875-64-1444-198-1711-129-263-349-397-655-397-349 0-565 112-647 336-86 220-129 802-129 1738v1755zm1629 2298c-823 599-1302 1099-1431 1505-134 405-198 983-198 1741 0 871 56 1428 172 1682 112 254 341 379 681 379 324 0 531-99 630-297s146-716 146-1561v-3449zm12103-12491v20463h-5251V15359h5251zm13505 3699v16764h-5187l90-1397c-353 569-789 996-1306 1281-518 284-1113 426-1785 426-763 0-1402-133-1906-405-505-267-875-625-1117-1073-237-449-388-910-448-1397-56-483-86-1445-86-2889V19058h5096v11409c0 1306 39 2078 121 2324 77 246 297 366 651 366 375 0 603-125 672-379 74-250 108-1065 108-2436V19058h5097zm7101-3699v20463h-5252V15359h5252zm18687 11995c0 2057-48 3510-147 4363-95 858-397 1639-906 2346-508 707-1198 1250-2065 1630-866 379-1875 569-3026 569-1096 0-2075-181-2945-539-871-358-1574-893-2100-1608-531-716-845-1496-949-2337-99-845-151-2320-151-4424v-3501c0-2057 48-3510 147-4364 95-858 397-1638 905-2345 509-707 1199-1250 2066-1630 866-379 1875-569 3027-569 1095 0 2073 181 2944 539s1574 892 2100 1608c530 716 845 1496 949 2337 99 845 151 2320 151 4424v3501zm-5330-6722c0-949-51-1556-155-1824-103-263-315-397-634-397-271 0-478 108-625 324-142 211-215 845-215 1897v9550c0 1186 47 1919 142 2195 95 280 315 418 659 418 354 0 583-159 682-478s146-1083 146-2286v-9399zm12245-1574-181 2208c746-1587 1824-2423 3234-2518v5898c-935 0-1625 125-2065 380-440 254-707 603-811 1056-99 448-151 1487-151 3117v6623h-5096V19058h5070zm8740 6494h-4786v-1126c0-1297 151-2298 449-3005 297-703 901-1324 1802-1863s2070-810 3514-810c1725 0 3027 306 3902 918 875 608 1401 1358 1578 2247 177 888 268 2720 268 5493v8416h-4968v-1496c-310 603-715 1052-1207 1354-491 302-1078 452-1763 452-893 0-1712-250-2458-750-746-504-1117-1599-1117-3294v-1380c0-1254 199-2108 595-2565 397-457 1380-987 2950-1591 1677-660 2574-1100 2694-1328 117-229 177-690 177-1393 0-875-65-1444-198-1711-130-263-349-397-656-397-349 0-565 112-646 336-87 220-130 802-130 1738v1755zm1630 2298c-823 599-1302 1099-1431 1505-134 405-199 983-199 1741 0 871 56 1428 173 1682 112 254 340 379 681 379 323 0 530-99 629-297 100-198 147-716 147-1561v-3449zm750-13759h2147c-51 1151-383 2074-1004 2777s-1479 1052-2583 1052c-1112 0-1975-354-2587-1061-612-702-940-1625-991-2768h2147c103 1156 577 1733 1431 1733 858 0 1341-577 1440-1733zm16527 10322h-4501v-910c0-776-44-1263-134-1470-86-207-310-310-664-310-285 0-500 95-643 284-142 190-215 475-215 854 0 513 34 893 108 1130 69 241 284 504 642 789 354 289 1087 707 2195 1254 1479 725 2444 1406 2906 2049 461 638 694 1569 694 2789 0 1367-177 2397-530 3092-354 694-945 1233-1772 1608-833 375-1828 560-3001 560-1294 0-2406-202-3325-603-922-405-1556-953-1901-1643s-517-1733-517-3130v-806h4527v1056c0 897 56 1479 168 1750 116 268 340 401 673 401 362 0 612-90 754-271s216-565 216-1143c0-802-91-1302-276-1505-194-202-1182-802-2962-1798-1497-840-2411-1604-2738-2293-328-686-492-1501-492-2445 0-1341 177-2328 530-2962 354-638 953-1130 1798-1475 846-345 1829-517 2945-517 1113 0 2057 142 2833 422 781 285 1375 656 1794 1121 414 462 668 893 754 1290 91 396 134 1017 134 1858v974zm-6855 12314h3414v1061c0 2712-1138 4307-3414 4786v-1474c491-294 776-673 853-1139h-853v-3234zm20169-9002h-6622v3634c0 759 56 1251 164 1471 112 220 323 327 638 327 392 0 655-146 784-435 134-293 199-858 199-1695v-2216h4837v1242c0 1039-64 1837-194 2393-133 556-439 1151-918 1785s-1091 1108-1828 1427c-737 315-1660 474-2773 474-1077 0-2030-155-2858-470-824-310-1466-737-1927-1280-462-543-777-1143-953-1798-177-651-268-1600-268-2850v-4894c0-1466 199-2621 595-3471 397-845 1044-1496 1945-1944 905-453 1940-677 3113-677 1431 0 2613 271 3544 815 931 543 1587 1263 1962 2160 375 892 560 2156 560 3781v2221zm-5096-2717v-1224c0-871-47-1427-142-1682-95-254-289-379-582-379-363 0-587 108-673 323-86 216-129 794-129 1738v1224h1526zm11930-5950-77 1557c370-621 823-1087 1358-1402 535-310 1151-465 1854-465 875 0 1591 207 2147 621 556 409 914 931 1074 1560 159 626 241 1673 241 3139v11754h-5096V24211c0-1152-39-1859-117-2109-73-254-284-379-633-379-367 0-595 146-690 435-91 293-138 1070-138 2333v11331h-5097V19058h5174zm19920 8667h-6622v3634c0 759 56 1251 163 1471 112 220 324 327 638 327 393 0 656-146 785-435 134-293 199-858 199-1695v-2216h4837v1242c0 1039-65 1837-194 2393-134 556-440 1151-918 1785-479 634-1091 1108-1828 1427-738 315-1660 474-2773 474-1078 0-2031-155-2858-470-824-310-1466-737-1928-1280-461-543-776-1143-953-1798-176-651-267-1600-267-2850v-4894c0-1466 198-2621 595-3471 397-845 1044-1496 1945-1944 905-453 1940-677 3113-677 1431 0 2613 271 3544 815 931 543 1587 1263 1962 2160 375 892 560 2156 560 3781v2221zm-5096-2717v-1224c0-871-48-1427-143-1682-94-254-288-379-582-379-362 0-586 108-672 323-86 216-129 794-129 1738v1224h1526zm17182-595h-4502v-910c0-776-43-1263-133-1470-87-207-311-310-664-310-285 0-500 95-643 284-142 190-215 475-215 854 0 513 34 893 107 1130 69 241 285 504 643 789 354 289 1086 707 2195 1254 1478 725 2444 1406 2906 2049 461 638 694 1569 694 2789 0 1367-177 2397-531 3092-353 694-944 1233-1772 1608-832 375-1828 560-3001 560-1293 0-2406-202-3324-603-923-405-1556-953-1901-1643s-518-1733-518-3130v-806h4528v1056c0 897 56 1479 168 1750 116 268 340 401 672 401 363 0 612-90 755-271 142-181 215-565 215-1143 0-802-90-1302-276-1505-194-202-1181-802-2962-1798-1496-840-2410-1604-2738-2293-327-686-491-1501-491-2445 0-1341 177-2328 530-2962 354-638 953-1130 1798-1475s1828-517 2945-517c1112 0 2057 142 2833 422 780 285 1375 656 1794 1121 413 462 668 893 754 1290 91 396 134 1017 134 1858v974zm13055 983h-4811v-1940c0-672-56-1130-169-1371-112-241-319-362-620-362-302 0-505 103-608 315-104 211-155 681-155 1414v7912c0 599 77 1047 232 1345 151 298 380 448 682 448 349 0 586-155 711-465 125-311 185-897 185-1764v-1987h4553c-8 1336-55 2341-146 3009-86 669-371 1354-849 2057-475 703-1100 1233-1867 1591-768 358-1717 534-2851 534-1440 0-2586-245-3432-741-840-492-1440-1182-1789-2070-349-892-526-2151-526-3790v-4764c0-1427 142-2501 431-3225 285-725 897-1371 1837-1940 936-570 2074-854 3419-854 1332 0 2471 284 3419 849 945 565 1574 1277 1885 2139 314 862 469 2082 469 3660zM151376 46916l-2694 20463h-8059l-3087-20463h5614c634 5644 1095 10417 1384 14319 285-3945 578-7446 875-10503l354-3816h5613zm6015 0v2665h-5251v-2665h5251zm0 3699v16764h-5251V50615h5251zm12263 5356h-4502v-910c0-776-43-1264-133-1470-86-208-311-311-664-311-285 0-500 95-643 285-142 189-215 474-215 853 0 513 34 893 107 1130 69 241 285 504 643 789 354 289 1087 707 2195 1255 1478 724 2444 1405 2906 2048 461 638 694 1569 694 2789 0 1367-177 2398-531 3092-353 694-944 1233-1772 1608-832 375-1828 561-3001 561-1293 0-2405-203-3324-604-923-405-1556-953-1901-1643s-518-1733-518-3130v-806h4528v1056c0 897 56 1479 168 1751 116 267 340 401 672 401 363 0 613-91 755-272s216-565 216-1143c0-802-91-1302-276-1504-194-203-1182-802-2963-1798-1496-841-2410-1604-2738-2294-327-686-491-1501-491-2445 0-1341 177-2328 530-2962 354-638 953-1130 1798-1475 845-344 1828-517 2945-517 1113 0 2057 142 2833 423 780 284 1375 655 1794 1121 414 461 668 892 754 1289 91 396 134 1017 134 1858v975zm-6856 12314h3415v1060c0 2712-1138 4308-3415 4786v-1474c492-294 776-673 854-1139h-854v-3233zm20170-9003h-6622v3635c0 759 56 1250 163 1470 112 220 324 328 638 328 393 0 656-147 785-436 134-293 199-858 199-1694v-2217h4837v1242c0 1039-65 1837-194 2393-133 556-440 1151-918 1785-479 634-1091 1108-1828 1427-738 315-1660 475-2773 475-1078 0-2031-156-2858-470-824-311-1466-738-1928-1281-461-543-776-1142-952-1798-177-651-268-1599-268-2850v-4894c0-1466 198-2621 595-3470 397-846 1044-1497 1945-1945 905-453 1940-677 3113-677 1431 0 2613 272 3544 815s1587 1263 1962 2160c375 893 560 2156 560 3781v2221zm-5096-2716v-1225c0-871-48-1427-143-1682-94-254-288-379-582-379-362 0-586 108-672 323-86 216-129 794-129 1738v1225h1526zm18424-5951v16764h-5187l90-1397c-353 569-789 996-1306 1281-518 284-1113 427-1785 427-763 0-1402-134-1906-406-505-267-875-625-1117-1073-237-449-388-910-448-1397-56-483-86-1445-86-2889V50615h5096v11409c0 1307 39 2078 121 2324 77 246 297 367 651 367 375 0 603-126 672-380 74-250 108-1065 108-2436V50615h5097zm18027-3699v20463h-5097v-1220c-491 513-1005 893-1543 1147-544 254-1109 384-1699 384-794 0-1483-207-2065-626-583-418-958-901-1122-1448-163-548-245-1440-245-2682v-7852c0-1289 82-2203 245-2742 164-539 544-1013 1134-1423 591-409 1298-612 2117-612 634 0 1212 116 1742 345 526 228 1005 569 1436 1030v-4764h5097zm-5097 7916c0-612-52-1026-159-1237-108-212-319-315-634-315-311 0-518 95-625 285-108 189-160 612-160 1267v8214c0 681 52 1130 155 1345 104 216 298 324 591 324 332 0 556-121 664-363 112-237 168-823 168-1759v-7761zm18484 4450h-6622v3635c0 759 56 1250 163 1470 112 220 324 328 639 328 392 0 655-147 784-436 134-293 199-858 199-1694v-2217h4837v1242c0 1039-64 1837-194 2393-133 556-440 1151-918 1785-479 634-1091 1108-1828 1427-738 315-1660 475-2773 475-1078 0-2031-156-2858-470-824-311-1466-738-1928-1281-461-543-776-1142-952-1798-177-651-268-1599-268-2850v-4894c0-1466 198-2621 595-3470 397-846 1044-1497 1945-1945 905-453 1940-677 3113-677 1431 0 2613 272 3544 815s1587 1263 1962 2160c375 893 560 2156 560 3781v2221zm-5096-2716v-1225c0-871-48-1427-142-1682-95-254-289-379-582-379-363 0-587 108-673 323-86 216-129 794-129 1738v1225h1526zm22727-3441h-4942v-1514c0-707-64-1159-189-1353s-332-289-625-289c-320 0-561 129-725 392-164 259-246 651-246 1181 0 682 95 1195 281 1540 181 340 681 759 1504 1250 2359 1410 3846 2570 4459 3471 616 901 922 2354 922 4355 0 1457-172 2531-513 3225-340 690-996 1267-1975 1733-974 470-2108 703-3406 703-1423 0-2634-272-3643-811-1005-538-1660-1224-1975-2056-310-837-465-2022-465-3553v-1341h4941v2488c0 767 69 1259 207 1479s383 327 737 327c353 0 616-137 789-418 172-276 259-690 259-1233 0-1203-164-1992-492-2358-340-371-1168-992-2488-1863-1319-875-2190-1514-2621-1910-427-397-785-944-1065-1643-280-698-423-1591-423-2677 0-1566 199-2713 600-3437s1043-1289 1936-1699c892-409 1966-612 3229-612 1380 0 2553 224 3527 669 970 448 1612 1008 1927 1690 315 676 475 1828 475 3453v811zm13637-2510v16764h-5186l90-1397c-354 569-789 996-1306 1281-518 284-1113 427-1785 427-764 0-1402-134-1906-406-505-267-876-625-1117-1073-237-449-388-910-448-1397-56-483-87-1445-87-2889V50615h5097v11409c0 1307 39 2078 120 2324 78 246 298 367 652 367 375 0 603-126 672-380 73-250 108-1065 108-2436V50615h5096zm12276 5356h-4502v-910c0-776-43-1264-133-1470-87-208-311-311-664-311-285 0-500 95-643 285-142 189-215 474-215 853 0 513 34 893 107 1130 69 241 285 504 643 789 354 289 1087 707 2195 1255 1478 724 2444 1405 2906 2048 461 638 694 1569 694 2789 0 1367-177 2398-531 3092-353 694-944 1233-1772 1608-832 375-1828 561-3001 561-1293 0-2406-203-3324-604-923-405-1556-953-1901-1643s-518-1733-518-3130v-806h4528v1056c0 897 56 1479 168 1751 116 267 340 401 672 401 363 0 612-91 755-272 142-181 216-565 216-1143 0-802-91-1302-276-1504-195-203-1182-802-2963-1798-1496-841-2410-1604-2738-2294-327-686-491-1501-491-2445 0-1341 177-2328 530-2962 354-638 953-1130 1798-1475 845-344 1828-517 2945-517 1113 0 2057 142 2833 423 780 284 1375 655 1794 1121 413 461 668 892 754 1289 91 396 134 1017 134 1858v975z" style="fill:url(#id4)"/></g></svg>